<svg id="Capa_1" enable-background="new 0 0 512 512" height="512" viewBox="0 0 512 512" width="512" xmlns="http://www.w3.org/2000/svg"><g><path d="m256 352.62h97.914v-195.828h-67.912l-50.003 20.001z" fill="#e3a76f"/><path d="m158.086 352.62h97.914v-175.827l-30.002-20.001h-67.912z" fill="#f2d1a5"/><path d="m51.248 512h51.248v-239.988l-71.249-20.002z" fill="#00969b"/><path d="m0 272.012v54.281l21.246 31.672v154.035h30.002v-259.99z" fill="#00ccb3"/><path d="m148.719 208.772h-46.223v-45.027c0-28.303-22.944-51.248-51.248-51.248l-20.001 99.482 20.001 60.532h97.471c17.601 0 31.869-14.268 31.869-31.869 0-17.602-14.268-31.87-31.869-31.87z" fill="#e1ebf0"/><path d="m51.248 112.497c-28.303 0-51.248 22.944-51.248 51.248v108.765h51.248z" fill="#fff5f5"/><path d="m102.496 81.25c0-28.303-22.945-51.248-51.248-51.248l-20.001 51.248 20.001 51.248c28.304 0 51.248-22.945 51.248-51.248z" fill="#ffcdbe"/><path d="m0 81.25c0 28.304 22.945 51.248 51.248 51.248v-102.496c-28.303 0-51.248 22.944-51.248 51.248z" fill="#ffeee5"/><path d="m460.752 512h-51.248v-239.988l71.249-20.002z" fill="#0b799d"/><path d="m512 272.012v54.281l-21.246 31.672v154.035h-30.002v-259.99z" fill="#07485e"/><path d="m363.281 208.772h46.223v-45.027c0-28.303 22.944-51.248 51.248-51.248l20.001 99.482-20.001 60.532h-97.471c-17.601 0-31.869-14.268-31.869-31.869 0-17.602 14.268-31.87 31.869-31.87z" fill="#ffeb99"/><path d="m460.752 112.497c28.303 0 51.248 22.945 51.248 51.248v108.765h-51.248z" fill="#ffda44"/><path d="m409.504 81.25c0-28.303 22.945-51.248 51.248-51.248l20.001 51.248-20.001 51.248c-28.304 0-51.248-22.945-51.248-51.248z" fill="#c48958"/><path d="m512 81.25c0 28.304-22.945 51.248-51.248 51.248v-102.496c28.303 0 51.248 22.944 51.248 51.248z" fill="#9e6f46"/><path d="m286.002 216.796h-30.002l-10.001-30.002 10.001-30.002h30.002z" fill="#c48958"/><path d="m225.998 156.792h30.002v60.004h-30.002z" fill="#e3a76f"/><path d="m324.121 0-21.213 21.213 27.182 27.182h-74.09l-10.001 15 10.001 15h74.09l-27.182 27.182 21.213 21.213 63.396-63.395z" fill="#07485e"/><path d="m181.91 48.395 27.182-27.182-21.213-21.213-63.396 63.395 63.396 63.395 21.213-21.213-27.182-27.182h74.09v-30z" fill="#0b799d"/></g></svg>