<svg height="511pt" viewBox="-44 0 511 511.9997" width="511pt" xmlns="http://www.w3.org/2000/svg"><path d="m271.695312 268.789062 58.589844-108.316406c6.828125-12.625 22.441406-17.558594 35.285156-11.148437 13.042969 6.511719 18.417969 22.308593 12.054688 35.421875l-47.222656 97.324218zm0 0" fill="#ffcbbe"/><path d="m58.230469 327.582031 32.832031-70.492187c9.753906-20.945313 26.105469-38.117188 46.546875-48.890625l53.507813-28.195313c16.910156-8.910156 37.398437 2.515625 38.703124 21.585938 0 0 .675782 11.738281-6.636718 19.386718l-41.105469 46.140626 111.886719-14.441407c15.339844-1.976562 29.027344-10.609375 37.425781-23.59375l45.195313-69.871093c7.644531-11.816407 23.410156-15.214844 35.242187-7.601563 10.933594 7.039063 14.828125 21.171875 9.042969 32.816406l-53.945313 108.582031c-6.570312 13.21875-17.28125 23.925782-30.507812 30.488282l-187.660157 93.101562zm0 0" fill="#ffddcf"/><path d="m73.1875 295.46875-14.957031 32.113281 90.527343 89.015625 63.574219-31.539062c-66.582031-21.140625-120.382812-70.710938-139.144531-89.589844zm0 0" fill="#ffcbbe"/><path d="m58.230469 327.582031 108.9375 98.023438c13.84375 12.457031 14.195312 34.046875.769531 46.949219l-31.746094 30.503906c-12.640625 12.144531-32.6875 11.886718-45.007812-.578125l-81.421875-82.355469c-12.492188-12.632812-12.328125-33.015625.367187-45.445312zm0 0" fill="#76e7e7"/><path d="m137.800781 454.617188h-19.824219c-77.546874-22.101563-94.609374-92.894532-94.613281-92.894532l-13.234375 12.957032c-12.695312 12.429687-12.859375 32.8125-.367187 45.445312l81.421875 82.355469c12.320312 12.464843 32.367187 12.71875 45.007812.578125l8.203125-7.882813c3.925781-24.203125-6.59375-40.558593-6.59375-40.558593zm0 0" fill="#2eddda"/><path d="m137.800781 454.617188c0 10.949218-8.875 19.824218-19.824219 19.824218-10.949218 0-19.824218-8.875-19.824218-19.824218 0-10.945313 8.875-19.820313 19.824218-19.820313 10.949219 0 19.824219 8.875 19.824219 19.820313zm0 0" fill="#6a829a"/><path d="m297.148438 129.351562h-150.324219c-15.933594 0-28.847657-12.917968-28.847657-28.851562v-71.648438c0-15.933593 12.914063-28.851562 28.847657-28.851562h150.320312c15.933594 0 28.851563 12.917969 28.851563 28.851562v71.648438c.003906 15.933594-12.914063 28.851562-28.847656 28.851562zm0 0" fill="#00b4fd"/><path d="m161.089844 100.5v-71.648438c0-15.933593 12.917968-28.851562 28.851562-28.851562h-43.117187c-15.933594 0-28.847657 12.917969-28.847657 28.851562v71.648438c0 15.933594 12.914063 28.851562 28.847657 28.851562h43.117187c-15.933594 0-28.851562-12.917968-28.851562-28.851562zm0 0" fill="#0092e2"/><path d="m230.464844 84.308594h-83.007813c-4.265625 0-7.726562-3.460938-7.726562-7.726563s3.460937-7.726562 7.726562-7.726562h83.007813c4.269531 0 7.726562 3.460937 7.726562 7.726562s-3.457031 7.726563-7.726562 7.726563zm0 0" fill="#516980"/><path d="m193.851562 109.144531h-46.394531c-4.265625 0-7.726562-3.457031-7.726562-7.726562 0-4.265625 3.460937-7.726563 7.726562-7.726563h46.394531c4.265626 0 7.726563 3.460938 7.726563 7.726563 0 4.269531-3.460937 7.726562-7.726563 7.726562zm0 0" fill="#516980"/><path d="m162.230469 50.550781h-11.628907c-4.5625 0-8.261718-3.703125-8.261718-8.265625v-11.628906c0-4.5625 3.699218-8.261719 8.261718-8.261719h11.628907c4.5625 0 8.261719 3.699219 8.261719 8.261719v11.628906c0 4.5625-3.699219 8.265625-8.261719 8.265625zm0 0" fill="#fcf5af"/></svg>