<svg height="602pt" viewBox="-47 -19 602 602.6644" width="602pt" xmlns="http://www.w3.org/2000/svg"><path d="m505.628906 168.972656-49.597656 143.148438c-6.195312 17.863281-23.027344 29.847656-41.933594 29.847656h-276.152344l-1.386718.222656-27.410156-173.082031.875-.136719h99.785156v62.851563h194.34375v-62.851563zm0 0" fill="#e48e66"/><path d="m209.808594 168.972656v-68.929687h-40.253906l137.429687-100.042969 94.421875 68.753906 43.003906 31.289063h-40.257812v131.78125h-194.34375zm0 0" fill="#f8ec7d"/><g fill="#6fe3ff"><path d="m423.972656 524.433594c0 22.40625-18.164062 40.5625-40.570312 40.5625s-40.566406-18.15625-40.566406-40.5625 18.160156-40.566406 40.566406-40.566406 40.570312 18.160156 40.570312 40.566406zm0 0"/><path d="m241.367188 524.433594c0 22.40625-18.164063 40.5625-40.570313 40.5625-22.398437 0-40.5625-18.15625-40.5625-40.5625s18.164063-40.566406 40.5625-40.566406c22.40625 0 40.570313 18.160156 40.570313 40.566406zm0 0"/><path d="m450.152344 442.378906h-261.023438c-25.550781.101563-47.335937-18.511718-51.230468-43.765625l-42.238282-266.746093c-2.761718-17.957032-18.253906-31.191407-36.421875-31.121094h-53.347656c-4.140625 0-7.496094-3.355469-7.496094-7.496094 0-4.136719 3.355469-7.496094 7.496094-7.496094h53.347656c25.558594-.101562 47.339844 18.511719 51.234375 43.765625l42.238282 266.75c2.765624 17.953125 18.25 31.183594 36.417968 31.117188h261.023438c4.144531 0 7.496094 3.355469 7.496094 7.496093 0 4.136719-3.351563 7.496094-7.496094 7.496094zm0 0"/></g><path d="m296.425781 172.421875h-.015625c-1.992187-.003906-3.90625-.804687-5.3125-2.222656l-26.925781-27.183594c-2.910156-2.945313-2.886719-7.691406.054687-10.605469 2.941407-2.914062 7.6875-2.890625 10.601563.054688l21.621094 21.832031 42.714843-42.707031c1.886719-1.917969 4.660157-2.679688 7.261719-1.984375 2.605469.6875 4.636719 2.722656 5.324219 5.324219.691406 2.601562-.070312 5.371093-1.988281 7.261718l-48.039063 48.039063c-1.40625 1.402343-3.308594 2.191406-5.296875 2.191406zm0 0" fill="#e48e66"/></svg>