<svg viewBox="-53 0 511 512" xmlns="http://www.w3.org/2000/svg"><path d="m405.09375 142.140625v311.179687c0 32.355469-26.324219 58.679688-58.679688 58.679688h-287.246093c-32.355469 0-58.667969-26.324219-58.667969-58.679688v-394.652343c0-32.34375 26.3125-58.667969 58.667969-58.667969h209.902343c6.09375 0 12.105469.960938 17.824219 2.789062 9.5625 3.050782 18.292969 8.53125 25.222657 16.003907l77.332031 83.464843c6.523437 7.039063 11.144531 15.449219 13.605469 24.523438 1.347656 4.960938 2.039062 10.121094 2.039062 15.359375zm0 0" fill="#f5f0eb"/><path d="m405.09375 142.140625v311.179687c0 32.355469-26.324219 58.679688-58.679688 58.679688h-144.550781v-512h67.207031c6.09375 0 12.105469.960938 17.824219 2.789062 9.5625 3.050782 18.292969 8.53125 25.222657 16.003907l77.332031 83.464843c6.523437 7.039063 11.144531 15.449219 13.605469 24.523438 1.347656 4.960938 2.039062 10.121094 2.039062 15.359375zm0 0" fill="#ebe1dc"/><path d="m127.4375 202.390625c-26.640625 0-48.3125 21.675781-48.3125 48.316406 0 26.636719 21.671875 48.3125 48.3125 48.3125s48.3125-21.675781 48.3125-48.3125c0-26.640625-21.671875-48.316406-48.3125-48.316406zm0 0" fill="#ffb64c"/><path d="m467.5625 264.441406-.238281-2.769531c.167969.910156.246093 1.839844.238281 2.769531zm0 0"/><path d="m405.09375 302.976562v150.34375c0 32.355469-26.324219 58.679688-58.679688 58.679688h-287.246093c-32.355469 0-58.667969-26.324219-58.667969-58.679688v-85.894531l15.152344 17.023438 59.378906-59.867188c.109375-.113281.230469-.203125.339844-.3125l.332031-.328125c.078125-.0625.160156-.121094.230469-.179687.207031-.179688.417968-.339844.628906-.511719.1875-.140625.378906-.28125.570312-.417969.21875-.152343.4375-.292969.667969-.433593.203125-.128907.402344-.25.601563-.359376.230468-.128906.449218-.238281.679687-.347656.21875-.109375.441407-.222656.660157-.3125.21875-.097656.441406-.179687.660156-.257812.238281-.089844.480468-.179688.71875-.261719.210937-.070313.429687-.128906.652344-.1875.25-.0625.5-.132813.75-.183594.21875-.046875.4375-.089843.660156-.117187.257812-.050782.507812-.089844.757812-.121094.230469-.019531.453125-.039062.683594-.050781.25-.019531.5-.039063.75-.039063.238281-.011718.46875 0 .699219 0 .238281.011719.488281.019532.730469.039063.238281.011719.480468.039062.71875.070312.230468.03125.46875.058594.699218.101563.25.039062.492188.089844.722656.148437.230469.050781.457032.101563.6875.160157.242188.070312.472657.140624.710938.21875.21875.070312.449219.152343.671875.230468.230469.089844.449219.179688.679687.28125.21875.101563.449219.199219.667969.308594.210938.113281.421875.222656.632813.339844.21875.121094.4375.25.660156.390625.199219.121093.386719.25.578125.390625.21875.152344.441406.300781.648437.46875.183594.140625.363282.292968.542969.453125.199219.167969.410157.347656.597657.539062.070312.070313.152343.121094.222656.191407.109375.117187.207031.238281.320312.347656.097656.109375.21875.210937.320313.332031l52.367187 58.808594 52.609375-71.121094 11.460938-15.492187s0 0 0-.011719c.21875-.289063.46875-.578125.71875-.871094.089843-.097656.179687-.21875.269531-.328125.101562-.101562.222656-.210938.320312-.308594.261719-.269531.519532-.53125.789063-.78125h.011719c.039062-.039062.078125-.070312.121094-.101562.339843-.296875.6875-.578125 1.050781-.839844.109375-.078125.21875-.148438.339843-.21875.289063-.199219.578126-.398438.886719-.582031.191407-.109375.402344-.207031.601563-.320313.21875-.109375.449218-.238281.679687-.339844.261719-.117187.519531-.21875.78125-.328124.191407-.070313.371094-.148438.550781-.210938.289063-.097656.578126-.179688.871094-.257812.179688-.050782.347656-.113282.519532-.152344.289062-.070313.570312-.121094.859374-.167969.1875-.03125.378907-.082031.570313-.101563.257813-.039062.519531-.058593.789063-.078124.21875-.023438.441406-.050782.660156-.0625.230468-.007813.460937 0 .691406 0 .257812 0 .507812-.007813.769531.011718.199219.007813.398438.027344.597657.050782.28125.027343.570312.046874.851562.097656.179688.019531.359375.0625.539062.101562.300782.050782.589844.109375.882813.179688.1875.050781.378906.109375.570313.167968.269531.082032.539062.152344.808593.25.238281.082032.480469.191407.710938.292969.210937.078125.417969.160157.621093.257813.320313.152344.628907.320312.9375.492187.121094.070313.242188.128907.359376.1875.382812.242188.761718.492188 1.132812.761719.039062.019531.078125.050781.109375.070312.007813.007813.007813.007813.007813.007813.3125.230469.601562.472656.882812.722656.109375.089844.21875.179688.320312.269531.117188.097657.21875.21875.339844.328126.25.261718.507813.511718.75.773437.007813.007813.007813.007813.007813.019531l26.445312 29.84375 51.457031-69.121094c.070313-.101562.160157-.179687.230469-.28125.191407-.238281.382813-.480468.589844-.710937.152344-.167969.320313-.339844.480469-.507813.171875-.179687.351562-.351562.53125-.519531.210937-.199219.441406-.402343.667968-.582031.101563-.089844.191407-.167969.292969-.25.046875-.050781.109375-.078125.160157-.117188.257812-.191406.519531-.371093.777343-.550781.160157-.101562.320313-.210937.480469-.3125.242188-.148437.5-.289062.75-.417969.191406-.109374.382812-.210937.582031-.3125.21875-.097656.4375-.1875.667969-.289062.230469-.097656.472656-.199219.710938-.289062.191406-.070313.390624-.128907.589843-.191407.269531-.078125.539063-.167969.800781-.238281.199219-.050781.390626-.082031.582032-.121094.277344-.058594.558594-.121094.828125-.167968.21875-.03125.429687-.050782.640625-.070313.257812-.03125.519531-.0625.769531-.082031.261719-.007813.511719-.007813.761719-.007813.21875-.011719.4375-.011719.660156-.011719.289062.011719.570312.039063.859375.070313.1875.019531.371094.03125.558594.050781.300781.039063.601562.097656.902343.160156.167969.027344.339844.058594.507813.089844.289063.070313.582031.148438.859375.238282.191406.050781.371094.101562.5625.160156.25.089844.488281.179687.738281.28125.222657.089844.441407.167968.652344.269531.199219.089844.398437.191406.597656.289063.261719.132812.511719.261718.761719.410156.160156.089844.320312.191406.480469.289062.269531.171875.53125.351563.789062.542969.058594.039063.121094.070313.171875.109375.097656.070312.1875.160156.277344.230469.242188.1875.480469.378906.710938.578125.179687.160156.351562.332031.519531.492187.171875.167969.339843.339844.511719.519531.210937.21875.398437.449219.589843.679688.078125.101562.167969.191406.238281.289062l51.828126 66.222657zm0 0" fill="#e5e566"/><path d="m403.054688 126.78125h-116.160157v-123.992188c9.5625 3.050782 18.292969 8.53125 25.222657 16.003907l77.332031 83.464843c6.523437 7.039063 11.144531 15.449219 13.605469 24.523438zm0 0" fill="#dcd2cd"/><path d="m405.09375 302.976562v150.34375c0 32.355469-26.324219 58.679688-58.679688 58.679688h-144.550781v-199.140625l11.460938-15.492187s0 0 0-.011719c.21875-.289063.46875-.578125.71875-.871094.089843-.097656.179687-.21875.269531-.328125.101562-.101562.222656-.210938.320312-.308594.261719-.269531.519532-.53125.789063-.78125h.011719c.039062-.039062.078125-.070312.121094-.101562.339843-.296875.6875-.578125 1.050781-.839844.109375-.078125.21875-.148438.339843-.21875.289063-.199219.578126-.398438.886719-.582031.191407-.109375.402344-.207031.601563-.320313.21875-.109375.449218-.238281.679687-.339844.261719-.117187.519531-.21875.78125-.328124.191407-.070313.371094-.148438.550781-.210938.289063-.097656.578126-.179688.871094-.257812.179688-.050782.347656-.113282.519532-.152344.289062-.070313.570312-.121094.859374-.167969.1875-.03125.378907-.082031.570313-.101563.257813-.039062.519531-.058593.789063-.078124.21875-.023438.441406-.050782.660156-.0625.230468-.007813.460937 0 .691406 0 .257812 0 .507812-.007813.769531.011718.199219.007813.398438.027344.597657.050782.28125.027343.570312.046874.851562.097656.179688.019531.359375.0625.539062.101562.300782.050782.589844.109375.882813.179688.1875.050781.378906.109375.570313.167968.269531.082032.539062.152344.808593.25.238281.082032.480469.191407.710938.292969.210937.078125.417969.160157.621093.257813.320313.152344.628907.320312.9375.492187.121094.070313.242188.128907.359376.1875.382812.242188.761718.492188 1.132812.761719.039062.019531.078125.050781.109375.070312.007813.007813.007813.007813.007813.007813.3125.230469.601562.472656.882812.722656.109375.089844.21875.179688.320312.269531.117188.097657.21875.21875.339844.328126.25.261718.507813.511718.75.773437.007813.007813.007813.007813.007813.019531l26.445312 29.84375 51.457031-69.121094c.070313-.101562.160157-.179687.230469-.28125.191407-.238281.382813-.480468.589844-.710937.152344-.167969.320313-.339844.480469-.507813.171875-.179687.351562-.351562.53125-.519531.210937-.199219.441406-.402343.667968-.582031.101563-.089844.191407-.167969.292969-.25.046875-.050781.109375-.078125.160157-.117188.257812-.191406.519531-.371093.777343-.550781.160157-.101562.320313-.210937.480469-.3125.242188-.148437.5-.289062.75-.417969.191406-.109374.382812-.210937.582031-.3125.21875-.097656.4375-.1875.667969-.289062.230469-.097656.472656-.199219.710938-.289062.191406-.070313.390624-.128907.589843-.191407.269531-.078125.539063-.167969.800781-.238281.199219-.050781.390626-.082031.582032-.121094.277344-.058594.558594-.121094.828125-.167968.21875-.03125.429687-.050782.640625-.070313.257812-.03125.519531-.0625.769531-.082031.261719-.007813.511719-.007813.761719-.007813.21875-.011719.4375-.011719.660156-.011719.289062.011719.570312.039063.859375.070313.1875.019531.371094.03125.558594.050781.300781.039063.601562.097656.902343.160156.167969.027344.339844.058594.507813.089844.289063.070313.582031.148438.859375.238282.191406.050781.371094.101562.5625.160156.25.089844.488281.179687.738281.28125.222657.089844.441407.167968.652344.269531.199219.089844.398437.191406.597656.289063.261719.132812.511719.261718.761719.410156.160156.089844.320312.191406.480469.289062.269531.171875.53125.351563.789062.542969.058594.039063.121094.070313.171875.109375.097656.070312.1875.160156.277344.230469.242188.1875.480469.378906.710938.578125.179687.160156.351562.332031.519531.492187.171875.167969.339843.339844.511719.519531.210937.21875.398437.449219.589843.679688.078125.101562.167969.191406.238281.289062l51.828126 66.222657zm0 0" fill="#d2d224"/></svg>