<svg id="Capa_1" enable-background="new 0 0 512 512" height="512" viewBox="0 0 512 512" width="512" xmlns="http://www.w3.org/2000/svg" xmlns:xlink="http://www.w3.org/1999/xlink"><linearGradient id="SVGID_1_" gradientUnits="userSpaceOnUse" x1="256" x2="256" y1="512" y2="0"><stop offset="0" stop-color="#fd3a84"/><stop offset="1" stop-color="#ffa68d"/></linearGradient><linearGradient id="SVGID_2_" gradientUnits="userSpaceOnUse" x1="256" x2="256" y1="512" y2="0"><stop offset="0" stop-color="#ffc2cc"/><stop offset="1" stop-color="#fff2f4"/></linearGradient><g><g><g><path d="m486 262.843h-36c2.038-8.055 0-12.204 0-15 0-24.813-34.187-45-59-45-14.363 0-34.546 6.764-49 17.274v-110.117l-56-50h-77.402c2.038-8.055 2.402-12.205 2.402-15 0-24.813-20.187-45-45-45s-45 20.187-45 45c0 2.796.364 6.945 2.401 15h-48.401c-8.284 0-15 6.716-15 15v48.401c-8.055-2.037-12.204-2.401-15-2.401-24.813 0-45 20.187-45 45s20.187 45 45 45c2.795 0 6.945-.364 15-2.402v77.402l78.401 22h86.599l61-22 2.558-1.873-2.401 1.873c-.087 0-.157.07-.157.157l-25.157 29.686v.157l-25 33.401c-8.056-2.037-12.204-2.401-15-2.401-24.813 0-45 20.187-45 45s20.187 45 45 45c2.797 0 6.946-.364 15-2.4l50.157 77.4h97.546c4.817 0 9.343-2.314 12.162-6.221 2.82-3.906 3.592-8.929 2.075-13.502-6.524-19.668-6.776-24.77-6.783-25.277 0-8.271 6.729-15 15-15s15 6.729 15 14.991c-.007.517-.259 5.62-6.782 25.286-1.517 4.573-.745 9.596 2.075 13.502 2.819 3.907 7.345 6.221 12.162 6.221h68.545c8.284 0 15-6.716 15-15v-211zm-168.371 0 5.617-4.112c.136 1.246.374 2.611.754 4.112z" fill="url(#SVGID_1_)"/></g></g><g><g><path d="m497 60h-48.4c2.036-8.053 2.4-12.204 2.4-15 0-24.813-20.187-45-45-45s-45 20.187-45 45c0 2.796.363 6.945 2.401 15h-77.401v63.401c-8.056-2.037-12.204-2.401-15-2.401-24.813 0-45 20.187-45 45s20.187 45 45 45c2.795 0 6.944-.364 15-2.402v77.402h77.401c-2.038-8.055-2.401-12.204-2.401-15 0-24.813 20.187-45 45-45s45 20.187 45 45c0 2.796-.363 6.945-2.401 15h63.401v-211c0-8.284-6.716-15-15-15zm-211.157 226h-77.044c-.102 0-.176-.101-.151-.2 1.994-7.926 2.352-12.029 2.352-14.8 0-24.813-20.187-45-45-45s-45 20.187-45 45c0 2.773.358 6.876 2.351 14.8.025.099-.049.2-.151.2h-63.043c-.087 0-.157.07-.157.157v78.244c-8.055-2.037-12.204-2.401-15-2.401-24.813 0-45 20.187-45 45s20.187 45 45 45c2.797 0 6.947-.364 15-2.4v47.4c0 8.284 6.716 15 15 15h68.546c4.818 0 9.342-2.314 12.162-6.221 2.82-3.906 3.592-8.929 2.075-13.502-6.524-19.668-6.776-24.77-6.783-25.277 0-8.271 6.729-15 15-15s15 6.729 15 14.991c-.007.517-.259 5.616-6.784 25.287-1.517 4.573-.745 9.596 2.075 13.502 2.82 3.907 7.344 6.221 12.162 6.221h97.547v-62.4c-8.054 2.036-12.203 2.4-15 2.4-24.813 0-45-20.187-45-45s20.187-45 45-45c2.796 0 6.944.364 15 2.401v-78.244c0-.088-.07-.158-.157-.158z" fill="url(#SVGID_2_)"/></g></g></g></svg>