<?xml version="1.0" encoding="iso-8859-1"?>
<!-- Generator: Adobe Illustrator 19.0.0, SVG Export Plug-In . SVG Version: 6.00 Build 0)  -->
<svg version="1.1" id="Capa_1" xmlns="http://www.w3.org/2000/svg" xmlns:xlink="http://www.w3.org/1999/xlink" x="0px" y="0px"
	 viewBox="0 0 464.181 464.181" style="enable-background:new 0 0 464.181 464.181;" xml:space="preserve">
<polygon style="fill:#F40E34;" points="128.09,296 128.09,464 0.09,464 0.09,296 64.09,248 "/>
<rect x="91.196" y="259.136" transform="matrix(-0.7071 0.7071 -0.7071 -0.7071 543.962 462.8196)" style="fill:#FFD422;" width="169.865" height="169.865"/>
<rect x="56.09" y="48" style="fill:#884D00;" width="16" height="200"/>
<circle style="fill:#F40E34;" cx="64.09" cy="24" r="24"/>
<g>
	
		<rect x="23.788" y="396.004" transform="matrix(-0.7071 0.7071 -0.7071 -0.7071 374.5599 652.8609)" style="fill:#FFFFFF;" width="56.56" height="16"/>
	<rect x="88.09" y="408" style="fill:#FFFFFF;" width="16" height="16"/>
	<rect x="24.09" y="368" style="fill:#FFFFFF;" width="16" height="16"/>
</g>
<rect x="168.09" y="48" style="fill:#884D00;" width="16" height="176"/>
<circle style="fill:#FFD422;" cx="176.09" cy="24" r="24"/>
<rect x="352.09" y="272" style="fill:#69C229;" width="112" height="192"/>
<rect x="400.09" y="48" style="fill:#884D00;" width="16" height="224"/>
<circle style="fill:#69C229;" cx="408.09" cy="24" r="24"/>
<g>
	
		<rect x="374.15" y="360.038" transform="matrix(-0.7071 0.7071 -0.7071 -0.7071 956.8958 339.7177)" style="fill:#FFFFFF;" width="67.88" height="16"/>
	<rect x="424.09" y="384" style="fill:#FFFFFF;" width="16" height="16"/>
	<rect x="376.09" y="336" style="fill:#FFFFFF;" width="16" height="16"/>
</g>
<rect x="288.09" y="48" style="fill:#884D00;" width="16" height="112"/>
<g>
	<circle style="fill:#5AAAE7;" cx="296.09" cy="24" r="24"/>
	<polygon style="fill:#5AAAE7;" points="387.29,235.2 367.63,258.448 369.873,288.815 340.289,296.048 324.279,321.958 
		296.09,310.4 267.9,321.957 251.89,296.047 222.306,288.813 224.55,258.447 204.89,235.2 224.551,211.952 222.307,181.585 
		251.892,174.352 267.902,148.442 296.09,160 324.28,148.443 340.29,174.353 369.875,181.587 367.63,211.953 	"/>
</g>
<g>
	
		<rect x="262.147" y="224.004" transform="matrix(-0.7071 0.7071 -0.7071 -0.7071 669.5032 186.6903)" style="fill:#FFFFFF;" width="67.88" height="16"/>
	<rect x="312.09" y="248" style="fill:#FFFFFF;" width="16" height="16"/>
	<rect x="264.09" y="200" style="fill:#FFFFFF;" width="16" height="16"/>
	
		<rect x="142.186" y="335.997" transform="matrix(-0.7071 0.7071 -0.7071 -0.7071 543.9086 462.7003)" style="fill:#FFFFFF;" width="67.88" height="16"/>
	<rect x="192.09" y="360" style="fill:#FFFFFF;" width="16" height="16"/>
	<rect x="144.09" y="312" style="fill:#FFFFFF;" width="16" height="16"/>
</g>
<g>
</g>
<g>
</g>
<g>
</g>
<g>
</g>
<g>
</g>
<g>
</g>
<g>
</g>
<g>
</g>
<g>
</g>
<g>
</g>
<g>
</g>
<g>
</g>
<g>
</g>
<g>
</g>
<g>
</g>
</svg>
