<svg height="476pt" viewBox="0 -10 476 476" width="476pt" xmlns="http://www.w3.org/2000/svg"><path d="m459.460938 380.539062v75.441407l-33.839844-.308594v-37.992187h-34.171875v37.671874l-35.597657-.332031v-74.480469zm0 0" fill="#00acea"/><path d="m425.621094 455.628906v.042969l-34.171875-.320313v-37.671874h34.171875zm0 0" fill="#fedb41"/><path d="m316.199219 138.398438v74h-156.398438v-74c0-20.816407 16.871094-37.699219 37.6875-37.707032 9.46875 12.898438 24.511719 20.515625 40.511719 20.515625s31.042969-7.617187 40.511719-20.515625c20.816406.007813 37.6875 16.890625 37.6875 37.707032zm0 0" fill="#00efd1"/><path d="m289.199219 380.539062v75.441407l-33.839844-.308594v-37.992187h-34.167969v37.671874l-35.601562-.332031v-74.480469zm0 0" fill="#00acea"/><path d="m279.890625 41.890625c0 23.132813-18.753906 41.890625-41.890625 41.890625s-41.890625-18.757812-41.890625-41.890625c0-23.136719 18.753906-41.890625 41.890625-41.890625s41.890625 18.753906 41.890625 41.890625zm0 0" fill="#00efd1"/><path d="m255.359375 455.628906v.042969l-34.167969-.320313v-37.671874h34.167969zm0 0" fill="#fedb41"/><path d="m118.941406 380.539062v75.441407l-33.839844-.308594v-37.992187h-34.171874v37.671874l-35.601563-.332031v-74.480469zm0 0" fill="#00acea"/><path d="m85.101562 455.628906v.042969l-34.171874-.320313v-37.671874h34.171874zm0 0" fill="#fedb41"/><path d="m380.578125 267.988281h-134.578125v-23.136719c0-4.417968-3.582031-8-8-8s-8 3.582032-8 8v23.136719h-134.578125c-20.953125 0-38.421875 17.300781-38.421875 38.25v13.222657c0 4.417968 3.582031 8 8 8s8-3.582032 8-8v-13.222657c.191406-12.273437 10.144531-22.152343 22.421875-22.25h134.578125v35.980469c0 4.417969 3.582031 8 8 8s8-3.582031 8-8v-35.980469h134.578125c12.277344.097657 22.230469 9.976563 22.421875 22.25v13.222657c0 4.417968 3.582031 8 8 8s8-3.582032 8-8v-13.222657c0-20.949219-17.46875-38.25-38.421875-38.25zm0 0" fill="#f4b844"/><g fill="#fedb41"><path d="m476 380.539062h-135.480469l67.832031-58.738281zm0 0"/><path d="m305.738281 380.539062h-135.476562l67.828125-58.738281zm0 0"/><path d="m135.480469 380.539062h-135.480469l67.828125-58.738281zm0 0"/></g></svg>