<svg height="512" viewBox="0 0 64 64" width="512" xmlns="http://www.w3.org/2000/svg"><g id="Pencil_and_ruler" data-name="Pencil and ruler"><path d="m60.28 48.97-11.31 11.31-18.38-18.38 11.31-11.31 1.41 1.41 1 1 1.83 1.83 1 1 2.83 2.83 2.83 2.83z" fill="#ffcd00"/><path d="m45.31 34 1 1 1.437 1.437-.607-.607-1-1-1.265-1.265z" fill="#ffcd00"/><path d="m32.59 43.9 11.31-11.31-.59-.59-1.41-1.41-11.31 11.31z" fill="#ebbf00"/><path d="m47.26 16.74 2.928 2.921-2.925-2.924z" fill="#9bc9ff"/><path d="m44.339 13.812 2.921 2.928.003-.003z" fill="#9bc9ff"/><path d="m32 20.69-1.83-1.83-2.829-2.829-2.828-2.828-2.829-2.829-2.828-2.828-3.826-3.826-11.31 11.31 18.38 18.38 11.31-11.31z" fill="#ffcd00"/><circle cx="50.385" cy="50.385" fill="#d80027" r="2"/><path d="m44.339 13.812-1.318-1.318.001-.002-.002-.002-9.61 9.61-11.31 11.31-14.43 14.44 7.051 1.398.005.026 32.534-32.534z" fill="#f7941d"/><path d="m24.1 35.41 11.31-11.31 9.608-9.608-.679-.68-1.318-1.318.001-.002-.002-.002-9.61 9.61-11.31 11.31-14.43 14.44 3.337.662z" fill="#ee8700"/><path d="m51.508 20.978-.002.001-1.318-1.318-2.928-2.921-32.534 32.534 1.424 7.056 14.44-14.43 11.31-11.31 9.61-9.61z" fill="#d80027"/><path d="m47.263 16.737 2.925 2.924 1.32 1.317 3.534-3.534-8.486-8.486-3.534 3.534 1.317 1.32z" fill="#2488ff"/><path d="m51.506 20.979.002-.001-1.32-1.317z" fill="#9bc9ff"/><path d="m44.339 13.812-1.317-1.32-.001.002z" fill="#9bc9ff"/><path d="m57.87 14.615a6 6 0 0 0 -8.485-8.485l-2.829 2.828 8.486 8.486z" fill="#f1f2f2"/><path d="m51.508 20.978-.002.001-1.318-1.318-.68-.679-9.608 9.608-11.31 11.31-13.112 13.103.672 3.327 14.44-14.43 11.31-11.31 9.61-9.61z" fill="#bd0022"/><path d="m53.042 15.444-3.534 3.534.68.683 1.32 1.317 3.534-3.534z" fill="#006df0"/><path d="m57.87 6.13a5.98 5.98 0 0 0 -1.131-.869 5.989 5.989 0 0 1 -.869 7.354l-2.828 2.829 2 2 2.828-2.829a6 6 0 0 0 0-8.485z" fill="#d1d3d4"/><path d="m10.691 57.94 5.46-1.6-1.43-7.087-7.056-1.4-1.605 5.456a7.013 7.013 0 0 1 4.631 4.631z" fill="#d1d3d4"/><path d="m10.691 57.94a7.013 7.013 0 0 0 -4.631-4.631l-1.93 6.561z" fill="#603913"/><g fill="#cca400"><path d="m18.272 10.787h4.001v2h-4.001z" transform="matrix(.707 -.707 .707 .707 -2.397 17.787)"/><path d="m13.736 8.665h6v2h-6z" transform="matrix(.707 -.707 .707 .707 -1.932 14.665)"/><path d="m23.929 16.444h4v2h-4z" transform="matrix(.707 -.707 .707 .707 -4.74 23.443)"/><path d="m19.394 14.323h6v2h-6z" transform="matrix(.707 -.707 .707 .707 -4.276 20.322)"/><path d="m25.05 19.979h6v2h-6z" transform="matrix(.707 -.707 .707 .707 -6.619 25.979)"/><path d="m40.899 33.414h4v2h-4z" transform="matrix(.707 -.707 .707 .707 -11.77 40.414)"/><path d="m46.557 39.071h4v2h-4z" transform="matrix(.707 -.707 .707 .707 -14.113 46.071)"/><path d="m42.021 36.95h6v2h-6z" transform="matrix(.707 -.707 .707 .707 -13.648 42.95)"/><path d="m47.678 42.607h6v2h-6z" transform="matrix(.707 -.707 .707 .707 -15.991 48.607)"/></g></g></svg>