<svg height="512pt" viewBox="0 -20 512.004 512" width="512pt" xmlns="http://www.w3.org/2000/svg"><path d="m232.003906 167.90625-8 40h-112l24-40zm0 0" fill="#f6bb42"/><path d="m280.003906 167.90625 8 40h-64l8-40zm0 0" fill="#da4453"/><path d="m376.003906 167.90625 24 40h-112l-8-40zm0 0" fill="#f6bb42"/><path d="m288.003906 207.90625v48l-32-8-32 8v-48zm0 0" fill="#ed5565"/><path d="m400.003906 207.90625v203.679688c-38.960937 32.640624-89.203125 52.398437-144 52.398437-54.800781 0-105.042968-19.679687-144-52.398437v-203.679688h112v48l32-8 32 8v-48zm0 0" fill="#ffce54"/><path d="m375.976562 207.90625v221.222656c8.402344-5.335937 16.433594-11.183594 24.027344-17.542968v-203.679688zm0 0" fill="#f6bb42"/><path d="m35.058594 239.386719c.984375-.410157 1.871094-.992188 2.605468-1.738281l23.992188-23.992188c3.128906-3.125 3.128906-8.183594 0-11.308594-3.125-3.128906-8.183594-3.128906-11.308594 0l-9.363281 9.359375c10.265625-109.617187 102.761719-195.703125 215.019531-195.703125 98.605469 0 184.628906 66.597656 209.183594 161.957032 1.109375 4.28125 5.519531 6.863281 9.742188 5.761718 4.28125-1.105468 6.855468-5.472656 5.761718-9.746094-26.386718-102.4375-118.777344-173.97265575-224.6875-173.97265575-121.691406 0-221.730468 94.19140575-231.195312 213.49218775l-11.152344-11.148438c-3.125-3.128906-8.183594-3.128906-11.308594 0-3.128906 3.125-3.128906 8.183594 0 11.308594l23.992188 23.992188c.734375.746093 1.621094 1.328124 2.605468 1.738281.976563.40625 2.015626.617187 3.058594.617187 1.039063 0 2.078125-.210937 3.054688-.617187zm0 0" fill="#656d78"/><path d="m509.65625 250.347656-24-24c-3.125-3.128906-8.183594-3.128906-11.308594 0l-24 24c-3.128906 3.125-3.128906 8.183594 0 11.308594 1.558594 1.5625 3.605469 2.347656 5.65625 2.347656 2.046875 0 4.09375-.785156 5.652344-2.347656l10.027344-10.023438c-6.074219 113.714844-100.488282 204.371094-215.679688 204.371094-98.609375 0-184.632812-66.601562-209.1875-161.960937-1.101562-4.28125-5.503906-6.832031-9.742187-5.761719-4.28125 1.105469-6.855469 5.472656-5.761719 9.746094 26.386719 102.4375 118.777344 173.976562 224.691406 173.976562 124.214844 0 225.933594-98.152344 231.71875-220.96875l10.625 10.621094c1.558594 1.5625 3.605469 2.347656 5.65625 2.347656 2.046875 0 4.09375-.785156 5.652344-2.347656 3.128906-3.125 3.128906-8.183594 0-11.308594zm0 0" fill="#656d78"/><g fill="#f6bb42"><path d="m336.035156 351.9375c0-4.421875-3.578125-8-8-8h-144.066406c-4.421875 0-8 3.578125-8 8 0 4.425781 3.578125 8 8 8h144.066406c4.421875 0 8-3.574219 8-8zm0 0"/><path d="m328.035156 312.003906h-144.066406c-4.421875 0-8 3.574219-8 8 0 4.421875 3.578125 8 8 8h144.066406c4.421875 0 8-3.578125 8-8 0-4.425781-3.578125-8-8-8zm0 0"/><path d="m223.984375 375.953125c-4.421875 0-8 3.578125-8 8 0 4.425781 3.578125 8 8 8h64.035156c4.421875 0 8-3.574219 8-8 0-4.421875-3.578125-8-8-8zm0 0"/></g></svg>