<svg height="512" viewBox="0 0 512 512" width="512" xmlns="http://www.w3.org/2000/svg"><g id="Flat"><path d="m144.47 158.59-16.47 49.41v57l-38.8 9.4-41.2-82.4v-40l40-16 54.91 21.96z" fill="#f6d0b1"/><path d="m142.91 157.96-24.6 49.2a16.00547 16.00547 0 0 1 -23.19 6.15l-18-12 10.88-65.31z" fill="#f4c396"/><path d="m104 104h112v80h-112z" fill="#90c937"/><path d="m88 136 40 16-24 48-24-16z" fill="#f6d0b1"/><path d="m480 320.57v18.04a65.224 65.224 0 0 1 -5.27 25.7l-30.12 70.28a155.82869 155.82869 0 0 0 -12.61 61.41h-191.67l-.08-16-.25-48-96 24-72-192 56-32 56 128 48.85-58.62a131.1058 131.1058 0 0 1 79.15-45.38h112a65.216 65.216 0 0 1 56 64.57z" fill="#8ccee9"/><g fill="#37a0c5"><path d="m429.41 437.66-26.13 26.12a109.25487 109.25487 0 0 1 -77.78 32.22h-85.42l-.08-16h85.5a93.41179 93.41179 0 0 0 66.47-27.53l26.12-26.13z"/><path d="m285.49023 424h-61.49023v-16h61.49023a47.68721 47.68721 0 0 0 33.94141-14.05859l69.25488-69.25489 11.31348 11.31348-69.25488 69.25488a63.58274 63.58274 0 0 1 -45.25489 18.74512z"/><path d="m344 232-32 24 8 24 40-32 32 32 32-24-24-24z"/></g><path d="m380 268-20 20h-16l-9.71-19.43 25.71-20.57z" fill="#e64042"/><path d="m360 288-1.14 16-3.89 54.4-1.74 24.37-1.23 17.23-48 40v-56l33.33-80 6.67-16z" fill="#e64042"/><path d="m400 336-69.25483 69.25483a64 64 0 0 1 -45.25484 18.74517h-61.49033v64h93.75022a102 102 0 0 0 72.12489-29.87511l29.99989-29.99989z" fill="#8ccee9"/><path d="m354.97 358.4-1.74 24.37-22.48 22.48a63.80569 63.80569 0 0 1 -26.75 16.05v-16.99a47.565 47.565 0 0 0 15.43-10.37z" fill="#d3393b"/><path d="m240 304h-16v-16a16 16 0 0 0 -32 0v16h-16v-16a32 32 0 0 1 64 0z" fill="#986342"/><path d="m224 304h-96l-8 120h112z" fill="#f0de9c"/><path d="m264 424h-32l-8-120h32z" fill="#f0c033"/><path d="m208 328h-16v-40a16 16 0 0 0 -32 0v40h-16v-40a32 32 0 0 1 64 0z" fill="#af7d4d"/><path d="m224 424v32l-15.26 3.82a142.252 142.252 0 0 1 -16.87 3.13 140.21011 140.21011 0 0 1 -61.45-6.14l-5.31-1.77a53.707 53.707 0 0 1 -31.06-26.94 15.31971 15.31971 0 0 1 26.45-15.35 25.26048 25.26048 0 0 0 21.02 11.25h29.15l-4.39-6.59a13.79359 13.79359 0 0 1 19.13-19.13z" fill="#f6d0b1"/><path d="m176 432-13.31 8.88-9.73-14.59c-.45-.68-.98-1.45-1.56-2.29h19.27z" fill="#f4c396"/><path d="m424 104v70.06a40.947 40.947 0 0 1 -12 28.97 40.977 40.977 0 0 0 -12 28.97v8h-48a72.00587 72.00587 0 0 1 -72-72v-64l80-56z" fill="#f6d0b1"/><path d="m424 104v70.06a40.947 40.947 0 0 1 -12 28.97 40.977 40.977 0 0 0 -12 28.97v8h-8v-8a40.977 40.977 0 0 1 12-28.97 40.947 40.947 0 0 0 12-28.97v-77.06z" fill="#f4c396"/><path d="m416 161.12v-41.12l-48-48c-3.06 0-6.11.12-9.13.37a115.85359 115.85359 0 0 0 -72.81 33.57l-5.7 5.7q-.36-3.765-.36-7.64a80 80 0 1 1 136 57.12z" fill="#2f4054"/><path d="m320 128h-24a8 8 0 0 1 0-16h24a8 8 0 0 1 0 16z" fill="#2f4054"/><path d="m376 128h-24a8 8 0 0 1 0-16h24a8 8 0 0 1 0 16z" fill="#2f4054"/><path d="m344 211.75244a43.7948 43.7948 0 0 1 -19.57764-4.59717 7.99984 7.99984 0 1 1 7.15528-14.31054 27.91375 27.91375 0 0 0 24.84472 0 7.99984 7.99984 0 0 1 7.15528 14.31054 43.7948 43.7948 0 0 1 -19.57764 4.59717z" fill="#f4c396"/><circle cx="360" cy="144" fill="#2f4054" r="8"/><circle cx="312" cy="144" fill="#2f4054" r="8"/><path d="m336 184a7.97507 7.97507 0 0 1 -5.65674-2.34326l-8-8a7.99941 7.99941 0 0 1 -1.93262-8.18653l8-24a7.99989 7.99989 0 0 1 15.17872 5.05958l-6.43653 19.30957 4.50391 4.5039a8 8 0 0 1 -5.65674 13.65674z" fill="#f4c396"/><path d="m383.16 59.58-9.19 18.39-5.97-5.97c-3.06 0-6.11.12-9.13.37l9.97-19.95z" fill="#262d43"/><path d="m416 152 12.68629-12.68629a11.31372 11.31372 0 0 1 8-3.31371 11.31369 11.31369 0 0 1 11.31371 11.3137v2.0589a44.97052 44.97052 0 0 1 -13.17156 31.799 9.65683 9.65683 0 0 1 -6.82844 2.8284 9.65683 9.65683 0 0 1 -6.82842-2.82842l-5.17158-5.17158-8-16z" fill="#f6d0b1"/><path d="m360 288-1.14 16h-21.53l6.67-16z" fill="#d3393b"/><path d="m128 120h16v16h-16z" fill="#f0c033"/><path d="m144 144h24v16h-24z" fill="#59b25d"/><circle cx="184" cy="128" fill="#59b25d" r="8"/></g></svg>