<svg id="Layer_1" enable-background="new 0 0 64 64" height="512" viewBox="0 0 64 64" width="512" xmlns="http://www.w3.org/2000/svg"><path d="m49.2 39.3-17.2-7.3-17.2 7.3c-3.5 1.6-5.8 5.2-5.8 9.1v12.6h46v-12.6c0-3.9-2.3-7.5-5.8-9.1z" fill="#b5a58c"/><g fill="#9b8870"><path d="m38 45c.6-3.2 2.7-5.8 5.6-7.3l.9-.4-12.5-5.3v6z"/><path d="m26 45c-.6-3.2-2.7-5.8-5.6-7.3l-.9-.4 12.5-5.3v6z"/><path d="m31 38h2v23h-2z"/><path d="m19 52h2v9h-2z"/><path d="m27 48h2v2h-2z"/><path d="m27 52h2v2h-2z"/><path d="m27 56h2v2h-2z"/></g><path d="m41 45h14c1.1 0 2 .9 2 2v12c0 1.1-.9 2-2 2h-14c-1.1 0-2-.9-2-2v-12c0-1.1.9-2 2-2z" fill="#00b561"/><path d="m43 55h2v3h-2z" fill="#f4e8cb"/><path d="m47 54h2v4h-2z" fill="#f4e8cb"/><path d="m51 53h2v5h-2z" fill="#f4e8cb"/><path d="m42.6 52.8-1.2-1.6 4.7-3.5 2.1 2 4.3-2.6 1 1.8-5.7 3.4-1.9-2z" fill="#f4c167"/><path d="m44.8 24.3-2.8.7-1 7 4.6-3.7c.2-.2.4-.5.4-.8v-2.2c0-.6-.4-1-1-1-.1 0-.2 0-.2 0z" fill="#d8b4ad"/><path d="m22 25-2.8-.7c-.5-.1-1.1.2-1.2.7v.2 2.2c0 .3.1.6.4.8l4.6 3.8z" fill="#d8b4ad"/><path d="m41.2 7.3-9.2-4.3-9.2 4.3c-3.5 1.6-5.8 5.2-5.8 9.1v.2c0 1.6.5 3.1 1.3 4.4l2.7 4h22l2.7-4c.9-1.3 1.3-2.9 1.3-4.4v-.2c0-3.9-2.3-7.5-5.8-9.1z" fill="#6d4444"/><path d="m43 20.1v7.1c0 4.5-2.8 8.6-6.9 10.2l-1.1.4c-1.9.8-4 .8-5.9 0l-1.1-.4c-4.2-1.7-6.9-5.7-6.9-10.2v-7.1c0-1.8 1.2-3.4 2.9-3.9l8-2.2 8.1 2.2c1.7.5 2.9 2.1 2.9 3.9z" fill="#f7d2c4"/><path d="m38 22h5v2h-5z" fill="#686868"/><path d="m21 22h5v2h-5z" fill="#686868"/><path d="m27 21h2c.6 0 1.2.3 1.6.8l2.8 3.5c.4.5 1 .8 1.6.8h2c1.1 0 2-.9 2-2v-1c0-1.1-.9-2-2-2h-2.2c-.5 0-1 .2-1.4.6l-3.8 3.8c-.4.4-.9.6-1.4.6h-1.2c-1.1 0-2-.9-2-2v-1c0-1.2.9-2.1 2-2.1z" fill="#b4b4b5"/></svg>