<?xml version="1.0"?>
<svg xmlns="http://www.w3.org/2000/svg" viewBox="0 0 64 64" width="512" height="512"><path d="m56 58v-35h6l-9-8.217v-10.783h-6v5.304l-8-7.304-23 21h7v35z" fill="#5ed8e5"/><path d="m39 58v-56l-23 21h7v35z" fill="#76b5e5"/><circle cx="22" cy="58" fill="#d3d3d3" r="3"/><circle cx="34" cy="58" fill="#d3d3d3" r="3"/><path d="m47.81543 30.42139a.99992.99992 0 0 0 -.81543-.42139h-35.27911l-1.77216-5.31641a1 1 0 0 0 -.94873-.68359h-7v2h6.2793l1.75976 5.27979 4.99073 19.96289a1.00026 1.00026 0 0 0 .97021.75732h5v2.142a4 4 0 1 0 2 0v-2.142h10v2.142a4 4 0 1 0 2 0v-2.142h5a1 1 0 0 0 .94385-.66943l7-20a1.0007 1.0007 0 0 0 -.12842-.90918zm-23.81543 27.57861a2 2 0 1 1 -2-2 2.002 2.002 0 0 1 2 2zm12 0a2 2 0 1 1 -2-2 2.002 2.002 0 0 1 2 2z" fill="#1550af"/><circle cx="28" cy="41" fill="#beedfc" r="6"/><g fill="#ed4720"><path d="m31 42h-3a1 1 0 0 1 -1-1v-4h2v3h2z"/><path d="m2 35h6v2h-6z"/><path d="m2 43h8v2h-8z"/><path d="m2 51h9v2h-9z"/></g></svg>
