<svg height="512pt" viewBox="0 0 512 512.00099" width="512pt" xmlns="http://www.w3.org/2000/svg"><path d="m0 28.207031h330.175781v483.792969h-330.175781zm0 0" fill="#faecd9"/><path d="m165.089844 28.207031h165.085937v483.792969h-165.085937zm0 0" fill="#f8d8b6"/><path d="m61.082031 0h29.976563v86.320312h-29.976563zm0 0" fill="#f95a5a"/><path d="m121.035156 0h29.976563v86.320312h-29.976563zm0 0" fill="#f95a5a"/><path d="m180.992188 0h29.976562v86.320312h-29.976562zm0 0" fill="#f9235e"/><path d="m240.945312 0h29.976563v86.320312h-29.976563zm0 0" fill="#f9235e"/><path d="m231.144531 155.707031h-17.035156l1.4375-27.90625h-106.613281l2.738281 50.84375c.699219 13.152344 10.9375 30.953125 14.058594 36.09375l4.375 7.210938h64.390625l4.375-7.210938c2.589844-4.265625 10.066406-17.234375 12.945312-29.054687h19.328125zm0 0" fill="#b57548"/><path d="m214.109375 155.707031 1.4375-27.90625h-50.457031v94.148438h29.40625l4.375-7.210938c2.589844-4.265625 10.066406-17.234375 12.945312-29.054687h19.328125v-29.976563zm0 0" fill="#a0401a"/><g fill="#fed330"><path d="m84.496094 278.101562h163.871094v29.976563h-163.871094zm0 0"/><path d="m84.496094 338.058594h163.871094v29.972656h-163.871094zm0 0"/><path d="m84.496094 398.011719h163.871094v29.976562h-163.871094zm0 0"/></g><path d="m165.089844 278.101562h83.277344v29.976563h-83.277344zm0 0" fill="#fabe2c"/><path d="m165.089844 338.058594h83.277344v29.972656h-83.277344zm0 0" fill="#fabe2c"/><path d="m165.089844 398.011719h83.277344v29.976562h-83.277344zm0 0" fill="#fabe2c"/><path d="m493.625 55.691406c-9.644531-7.230468-21.527344-10.257812-33.453125-8.53125-11.925781 1.730469-22.457031 8.011719-29.667969 17.710938l-182.90625 247.367187-19.453125 103.539063 92.75-50.492188 181.890625-246.828125c14.675782-19.816406 10.566406-47.972656-9.160156-62.765625zm0 0" fill="#8dda5c"/><path d="m405.207031 99.039062 25.296875-34.167968c7.214844-9.703125 17.742188-15.980469 29.667969-17.710938 11.925781-1.726562 23.808594 1.300782 33.453125 8.53125 19.726562 14.792969 23.835938 42.949219 9.160156 62.765625l-25.019531 33.949219zm0 0" fill="#f95a5a"/><path d="m320.894531 365.285156-92.75 50.492188 19.453125-103.539063zm0 0" fill="#61c27a"/><path d="m425.03125 292.617188-24.144531-17.765626 67.675781-91.984374-81.066406-59.800782 17.792968-24.121094 105.160157 77.574219zm0 0" fill="#61c27a"/></svg>