<svg height="511pt" viewBox="-16 1 511 511.99999" width="511pt" xmlns="http://www.w3.org/2000/svg"><path d="m439.820312 147.761719v278.238281h-261.082031l-48.6875-51.1875v-259.417969h277.402344c17.847656 0 32.367187 14.519531 32.367187 32.367188zm0 0" fill="#ffb641"/><path d="m439.820312 147.761719v278.238281h-154.882812v-310.605469h122.515625c17.847656 0 32.367187 14.519531 32.367187 32.367188zm0 0" fill="#ff5b5b"/><path d="m145.988281 391.507812v-335.675781c0-30.835937-24.917969-55.832031-55.660156-55.832031h-56.839844c-18.21875 0-32.988281 14.8125-32.988281 33.089844 0 18.273437 14.769531 33.085937 32.988281 33.085937h43.546875c1.644532 0 2.980469 1.335938 2.980469 2.988281v322.34375zm0 0" fill="#0082ff"/><path d="m478.5 443.160156c0 18.269532-14.769531 33.089844-32.988281 33.089844h-285.742188v-66.179688h285.742188c9.109375 0 17.359375 3.703126 23.328125 9.691407s9.660156 14.257812 9.660156 23.398437zm0 0" fill="#0082ff"/><path d="m190.773438 437.097656c0-41.367187-33.433594-74.902344-74.675782-74.902344-41.242187 0-74.675781 33.535157-74.675781 74.902344 0 41.367188 33.433594 74.902344 74.675781 74.902344 41.242188 0 74.675782-33.535156 74.675782-74.902344zm0 0" fill="#005085"/><path d="m116.097656 412.117188c-8.800781 0-15.933594 7.136718-15.933594 15.9375v18.085937c0 8.800781 7.136719 15.933594 15.933594 15.933594 8.800782 0 15.933594-7.132813 15.933594-15.933594v-18.085937c0-8.800782-7.132812-15.9375-15.933594-15.9375zm0 0" fill="#fff"/><path d="m478.5 443.160156c0 18.269532-14.769531 33.089844-32.988281 33.089844h-160.574219v-66.179688h160.574219c9.109375 0 17.359375 3.703126 23.328125 9.691407s9.660156 14.257812 9.660156 23.398437zm0 0" fill="#2c4ce6"/><path d="m337.671875 302.210938c5.847656 5.859374 5.847656 15.359374 0 21.21875-2.933594 2.929687-6.773437 4.390624-10.613281 4.390624s-7.679688-1.460937-10.609375-4.390624l-31.507813-31.519532-31.519531 31.519532c-2.933594 2.929687-6.773437 4.390624-10.613281 4.390624s-7.667969-1.460937-10.597656-4.390624c-5.859376-5.859376-5.859376-15.359376 0-21.21875l31.507812-31.511719-31.507812-31.519531c-5.859376-5.859376-5.859376-15.351563 0-21.210938 5.847656-5.859375 15.347656-5.859375 21.210937 0l31.519531 31.511719 31.507813-31.511719c5.859375-5.859375 15.359375-5.859375 21.222656 0 5.847656 5.859375 5.847656 15.351562 0 21.210938l-31.523437 31.519531zm0 0" fill="#fff"/><path d="m337.671875 302.210938c5.847656 5.859374 5.847656 15.359374 0 21.21875-2.933594 2.929687-6.773437 4.390624-10.613281 4.390624s-7.679688-1.460937-10.609375-4.390624l-31.507813-31.519532v-42.429687l31.507813-31.511719c5.859375-5.859375 15.359375-5.859375 21.222656 0 5.847656 5.859375 5.847656 15.351562 0 21.210938l-31.523437 31.519531zm0 0" fill="#f3eee9"/></svg>